<?xml version="1.0" standalone="no"?>
<!DOCTYPE svg PUBLIC "-//W3C//DTD SVG 20010904//EN"
 "http://www.w3.org/TR/2001/REC-SVG-20010904/DTD/svg10.dtd">
<svg version="1.0" xmlns="http://www.w3.org/2000/svg"
 width="660.000000pt" height="660.000000pt" viewBox="0 0 660.000000 660.000000"
 preserveAspectRatio="xMidYMid meet">
<metadata>
Created by potrace 1.11, written by Peter Selinger 2001-2013
</metadata>
<g transform="translate(0.000000,660.000000) scale(0.100000,-0.100000)"
fill="#000000" stroke="none">
<path d="M2462 6568 c-6 -13 -11 -17 -11 -10 -1 6 -6 12 -12 12 -5 0 -7 -4 -4
-10 3 -5 1 -10 -5 -10 -6 0 -8 -4 -5 -10 3 -5 2 -10 -4 -10 -5 0 -12 6 -14 13
-4 10 -6 10 -6 0 -1 -8 -16 -13 -39 -13 -21 0 -44 -6 -50 -12 -10 -10 -15 -10
-22 2 -9 13 -10 13 -11 0 -1 -8 -1 -19 0 -23 1 -5 -3 -6 -9 -2 -5 3 -10 2 -10
-3 0 -6 -7 -13 -16 -16 -15 -6 -15 -4 -3 11 8 9 -3 4 -24 -12 -32 -23 -40 -26
-48 -14 -6 10 -9 10 -9 2 0 -7 -11 -13 -25 -13 -14 0 -25 -5 -25 -11 0 -8 -6
-7 -17 2 -10 7 -15 10 -11 5 4 -5 1 -15 -7 -22 -17 -17 -28 -18 -20 -1 4 6 -5
-3 -20 -20 -14 -18 -33 -33 -41 -33 -8 0 -14 -4 -14 -10 0 -5 -6 -10 -14 -10
-8 0 -18 -5 -22 -12 -4 -6 -3 -8 3 -5 5 3 10 0 10 -8 0 -10 -5 -11 -18 -4 -20
10 -37 -5 -18 -17 8 -5 9 -3 4 6 -5 9 -4 11 4 6 16 -10 4 -26 -20 -26 -11 0
-17 -4 -14 -10 4 -6 -9 -10 -32 -10 -22 0 -45 -6 -52 -12 -11 -11 -13 -10 -7
2 4 8 -1 4 -12 -10 -11 -13 -18 -28 -15 -32 2 -5 -1 -7 -9 -6 -7 2 -12 -2 -11
-9 2 -8 -4 -10 -14 -6 -13 5 -15 2 -10 -12 6 -14 5 -15 -6 -7 -9 8 -17 8 -27
0 -13 -8 -13 -9 1 -5 9 3 16 -1 16 -8 0 -8 -7 -11 -15 -7 -10 3 -13 1 -8 -6 4
-7 2 -12 -4 -12 -6 0 -8 -5 -5 -10 3 -6 -1 -13 -10 -16 -12 -5 -13 -9 -4 -21
8 -9 9 -13 1 -11 -6 2 -18 -6 -27 -17 -9 -11 -13 -14 -9 -6 4 9 3 12 -4 7 -6
-4 -9 -13 -5 -21 3 -10 -1 -15 -12 -15 -10 0 -13 5 -9 12 4 7 3 8 -4 4 -6 -4
-9 -13 -5 -21 3 -8 0 -15 -6 -15 -6 0 -11 -7 -11 -15 0 -8 -4 -15 -10 -15 -5
0 -9 -3 -9 -7 3 -20 -2 -26 -11 -13 -8 13 -10 13 -10 -1 0 -9 -10 -24 -22 -35
-23 -19 -23 -19 -5 2 14 17 14 21 2 21 -8 0 -12 -4 -9 -9 3 -4 -1 -11 -10 -14
-9 -3 -12 -12 -8 -22 5 -15 4 -16 -13 -2 -11 9 -16 10 -11 3 5 -9 -1 -13 -19
-13 -15 0 -24 -4 -20 -10 5 -9 -15 -15 -37 -11 -4 0 -5 -6 -2 -14 4 -8 11 -12
17 -8 6 3 7 1 3 -5 -5 -9 -13 -9 -27 -2 -15 8 -19 8 -17 -2 2 -7 -3 -12 -10
-10 -10 2 -10 -2 -2 -19 11 -19 10 -20 -10 -9 -20 11 -21 10 -9 -12 11 -20 11
-22 -3 -10 -13 10 -18 10 -24 1 -4 -7 -3 -9 3 -6 5 3 10 0 10 -8 0 -10 -5 -11
-18 -5 -14 8 -16 6 -12 -13 4 -18 3 -19 -6 -7 -9 12 -11 11 -11 -7 0 -16 -4
-21 -15 -17 -11 5 -13 2 -8 -12 5 -13 3 -15 -7 -9 -10 6 -12 4 -6 -10 5 -15 4
-16 -9 -5 -13 11 -14 10 -9 -4 4 -9 1 -16 -6 -16 -7 0 -10 -8 -7 -20 4 -17 3
-18 -16 -8 -21 11 -21 10 -7 -7 9 -11 10 -16 3 -11 -8 4 -13 2 -13 -4 0 -6 -4
-8 -10 -5 -5 3 -10 -1 -10 -10 0 -10 5 -13 12 -9 7 4 8 3 4 -4 -5 -9 -13 -9
-26 -2 -13 7 -21 7 -25 0 -6 -10 1 -14 18 -11 5 1 5 -3 2 -9 -4 -6 -14 -9 -22
-5 -13 4 -13 3 -4 -9 9 -11 7 -15 -9 -19 -11 -3 -20 -10 -20 -17 0 -6 5 -8 12
-4 9 5 9 3 -1 -9 -7 -9 -17 -14 -22 -11 -5 3 -8 0 -7 -7 2 -7 -1 -14 -7 -14
-25 -4 -43 -18 -38 -31 3 -7 -2 -17 -12 -20 -9 -4 -14 -13 -10 -22 5 -13 3
-13 -12 -1 -9 8 -14 9 -10 2 10 -15 -3 -45 -17 -40 -6 2 -17 -3 -24 -12 -8 -9
-11 -10 -7 -3 12 23 -12 12 -25 -13 -7 -13 -16 -22 -20 -20 -5 3 -11 -7 -14
-20 -4 -17 -11 -23 -19 -18 -8 4 -7 1 2 -10 11 -14 11 -18 -3 -23 -13 -5 -14
-9 -5 -20 9 -11 9 -14 0 -14 -7 0 -9 -4 -6 -10 3 -5 2 -10 -4 -10 -6 0 -8 -7
-5 -15 4 -10 0 -15 -12 -15 -9 0 -15 -3 -12 -6 3 -3 -5 -16 -19 -30 -20 -21
-23 -27 -12 -40 10 -12 10 -15 -2 -12 -8 2 -13 -3 -11 -9 1 -7 -4 -13 -10 -13
-9 0 -8 -4 2 -10 11 -7 11 -10 2 -10 -7 0 -10 -5 -7 -10 3 -6 -1 -13 -10 -16
-12 -5 -13 -9 -4 -20 8 -10 8 -14 0 -14 -6 0 -11 -5 -11 -11 0 -5 5 -7 11 -3
7 4 7 -1 -1 -16 -8 -15 -8 -20 -1 -16 15 10 14 -27 -1 -42 -7 -7 -8 -12 -4
-12 5 0 1 -12 -9 -26 -9 -15 -13 -24 -8 -21 5 4 10 0 10 -8 0 -8 -2 -13 -5
-10 -10 10 -34 -27 -29 -45 3 -11 1 -22 -4 -26 -5 -3 -1 -17 9 -32 9 -14 12
-23 6 -20 -6 4 -11 1 -11 -7 0 -8 4 -12 8 -10 4 3 9 -22 11 -55 1 -33 -1 -60
-5 -60 -4 0 -3 -9 3 -20 8 -14 8 -20 0 -20 -6 0 -9 -4 -6 -8 2 -4 6 -51 7
-103 1 -72 -1 -94 -11 -94 -23 0 -21 -21 2 -33 13 -6 17 -11 11 -11 -7 -1 -13
-8 -13 -17 0 -9 -8 -23 -17 -30 -12 -9 -14 -13 -5 -14 10 0 9 -4 -3 -16 -9
-10 -13 -20 -8 -23 12 -9 14 -31 2 -31 -5 0 -7 -5 -3 -12 5 -7 8 -27 7 -44 0
-24 3 -31 13 -27 9 3 15 -3 16 -18 2 -37 2 -42 -6 -69 -6 -19 -5 -21 3 -10 8
11 11 11 11 2 0 -7 -11 -24 -25 -37 -15 -13 -22 -26 -18 -28 5 -3 8 -18 7 -34
-1 -19 -6 -27 -17 -25 -8 1 -19 -3 -23 -9 -5 -8 -3 -9 7 -4 12 8 12 6 1 -8 -8
-9 -10 -22 -6 -28 4 -7 3 -9 -4 -5 -6 3 -17 -1 -26 -10 -9 -8 -21 -12 -27 -8
-8 4 -9 3 -5 -4 4 -7 2 -13 -3 -13 -6 -1 -16 -2 -23 -3 -6 0 -13 -7 -16 -15
-3 -9 0 -11 8 -6 9 5 11 4 6 -3 -4 -7 -13 -12 -19 -12 -18 0 -21 -32 -16 -159
1 -18 3 -21 10 -10 7 12 9 12 10 -1 1 -8 1 -18 0 -22 0 -4 6 -5 14 -2 8 4 15
1 15 -5 0 -17 46 -61 63 -61 8 0 18 -7 21 -16 3 -8 10 -13 15 -10 5 3 7 -4 3
-16 -4 -16 -2 -19 8 -13 8 5 11 4 7 -3 -10 -15 3 -43 16 -35 6 4 8 0 4 -10 -4
-12 -1 -17 10 -17 13 0 14 -2 2 -17 -8 -9 -9 -14 -3 -10 6 3 16 -3 24 -13 8
-10 18 -16 24 -13 6 4 4 -2 -4 -12 -8 -10 -10 -16 -4 -12 7 4 15 0 18 -9 3 -9
12 -14 20 -11 9 4 12 -2 10 -19 -2 -20 1 -22 16 -14 17 9 17 8 -1 -26 -19 -38
-16 -64 7 -64 8 0 13 -3 12 -7 -1 -5 4 -24 11 -43 18 -47 21 -60 11 -60 -4 0
-11 -7 -14 -16 -3 -8 -2 -12 4 -9 6 3 10 1 10 -4 0 -6 -4 -11 -10 -11 -5 0
-10 -9 -10 -20 0 -11 -4 -20 -10 -20 -5 0 -10 -5 -10 -11 0 -5 4 -8 9 -5 5 4
7 -3 4 -14 -6 -23 -19 -26 -26 -7 -4 9 -6 9 -6 0 -1 -7 -12 -13 -26 -13 -14 0
-25 -5 -25 -11 0 -5 -4 -7 -10 -4 -5 3 -10 -2 -10 -12 0 -15 -2 -16 -10 -3 -8
12 -10 10 -10 -8 0 -15 -4 -21 -12 -16 -7 4 -8 3 -4 -5 11 -17 15 -61 6 -61
-4 0 -7 -23 -7 -50 -1 -27 3 -50 8 -50 5 0 4 -11 -1 -25 -6 -16 -6 -25 0 -25
6 0 8 -11 6 -24 -3 -18 -1 -23 9 -20 7 3 16 0 21 -7 5 -8 3 -10 -6 -4 -8 5
-11 4 -7 -3 8 -11 25 -11 44 1 7 5 13 5 13 0 0 -4 5 -1 10 7 6 9 10 10 10 3 0
-7 10 -10 25 -7 14 2 25 0 25 -6 0 -5 5 -10 11 -10 5 0 7 5 3 12 -4 7 -3 8 4
4 6 -4 9 -13 6 -20 -3 -8 0 -17 6 -21 8 -5 8 -11 -1 -21 -8 -10 -8 -14 0 -14
6 0 11 -9 11 -20 0 -11 5 -20 11 -20 8 0 8 -4 0 -14 -9 -10 -9 -16 -1 -21 8
-5 8 -11 1 -19 -6 -7 -8 -16 -4 -20 7 -7 11 -22 19 -71 2 -16 8 -31 13 -33 5
-2 7 -11 4 -22 -3 -12 3 -23 16 -32 12 -7 21 -16 21 -21 0 -4 -4 -5 -10 -2
-16 10 -11 -1 7 -16 11 -10 14 -10 9 -1 -4 6 -2 12 3 12 6 0 11 -7 11 -15 0
-8 14 -28 31 -45 18 -16 27 -30 22 -30 -6 0 -18 10 -27 23 l-17 22 11 -23 c6
-13 22 -27 36 -32 13 -5 24 -12 24 -15 0 -4 -5 -3 -11 1 -7 4 -10 1 -7 -7 3
-8 10 -14 15 -14 6 0 15 -4 20 -9 5 -5 3 -6 -4 -2 -7 4 -13 5 -13 2 0 -14 28
-63 48 -85 14 -15 18 -27 12 -31 -6 -4 -5 -13 4 -26 11 -15 12 -22 3 -33 -9
-12 -9 -13 1 -7 6 4 13 4 13 -1 1 -4 3 -18 4 -30 1 -12 5 -28 8 -37 4 -9 1
-16 -5 -16 -7 0 -7 -4 1 -14 7 -8 8 -17 3 -20 -5 -3 -5 -31 1 -66 8 -47 13
-60 25 -55 9 3 12 0 9 -7 -5 -15 17 -40 27 -31 3 4 6 1 6 -5 0 -8 22 -12 64
-12 46 0 65 -4 69 -14 3 -8 1 -17 -6 -20 -9 -3 -9 -5 1 -5 6 -1 12 -9 12 -19
0 -10 6 -24 13 -31 10 -11 9 -12 -3 -5 -11 6 -10 1 4 -20 10 -16 13 -25 7 -22
-7 5 -9 1 -5 -8 3 -9 11 -16 17 -16 6 0 7 -3 4 -7 -4 -3 1 -12 11 -20 9 -8 11
-12 5 -8 -8 4 -13 0 -13 -9 0 -9 4 -16 9 -16 6 0 8 -9 6 -19 -2 -12 3 -21 15
-24 13 -3 17 -11 13 -26 -3 -12 -1 -21 5 -21 5 0 13 -7 16 -16 4 -9 2 -13 -5
-8 -8 4 -8 1 -1 -12 6 -11 9 -22 9 -26 -1 -3 2 -10 7 -15 5 -4 6 -3 2 4 -3 6
-2 14 3 17 5 4 8 -5 6 -19 -1 -14 1 -25 5 -25 4 0 7 -8 7 -17 -1 -20 23 -75
37 -84 5 -4 5 -12 1 -19 -6 -9 -4 -11 5 -5 8 5 11 3 8 -6 -3 -8 3 -26 13 -40
10 -14 15 -30 11 -34 -4 -5 -2 -6 3 -2 6 3 17 -4 25 -16 12 -20 12 -21 -4 -8
-14 12 -16 12 -10 -3 6 -15 17 -20 36 -17 4 0 5 -6 2 -14 -4 -8 -1 -15 7 -15
7 0 9 -3 6 -7 -4 -3 -2 -12 5 -20 9 -11 7 -12 -8 -8 -10 4 -6 -1 9 -10 21 -12
27 -22 24 -36 -3 -10 0 -22 5 -26 7 -3 8 -1 4 5 -4 7 -2 12 3 12 6 0 11 -7 11
-16 0 -8 4 -13 9 -10 5 4 7 -3 4 -14 -3 -12 0 -20 6 -20 7 0 10 -4 7 -9 -3 -5
1 -14 9 -21 8 -7 15 -19 15 -27 0 -9 6 -13 14 -10 10 4 12 0 9 -14 -3 -11 0
-19 6 -19 7 0 9 5 5 12 -4 7 -3 8 4 4 6 -4 9 -13 5 -21 -3 -8 0 -15 7 -15 7 0
9 -8 5 -22 -4 -16 -4 -19 3 -9 12 17 30 6 43 -26 6 -16 14 -23 24 -19 13 4 13
2 5 -14 -9 -16 -7 -18 10 -15 12 2 20 -2 20 -10 0 -18 74 -80 126 -105 23 -12
48 -28 54 -36 7 -7 18 -14 25 -14 7 0 19 -7 26 -16 7 -9 22 -20 34 -25 11 -5
48 -27 83 -48 34 -22 62 -37 62 -35 0 3 12 -3 27 -14 16 -11 39 -23 53 -27 14
-4 47 -18 73 -32 28 -14 75 -26 112 -30 43 -4 62 -9 58 -17 -4 -6 1 -5 10 3
12 9 17 10 17 2 0 -7 4 -10 9 -6 5 3 12 1 16 -5 4 -6 10 -8 15 -5 5 3 19 1 31
-6 17 -9 20 -8 14 3 -6 10 -5 11 6 1 7 -7 26 -13 41 -13 16 0 28 -6 28 -12 0
-9 4 -8 10 2 6 10 10 11 10 3 0 -16 545 -19 555 -3 3 6 12 10 18 10 7 0 6 -4
-3 -10 -8 -5 -10 -10 -4 -10 5 0 20 9 32 20 14 13 22 16 22 8 0 -9 3 -9 10 2
9 13 10 13 10 0 0 -9 3 -11 8 -5 4 6 16 17 26 25 15 11 18 12 12 1 -6 -9 -5
-12 5 -9 8 3 13 10 12 16 -1 5 7 8 17 5 11 -3 28 1 37 8 15 12 16 12 8 -1 -8
-13 -6 -13 8 -2 9 8 20 11 26 8 5 -3 12 1 15 10 5 13 9 14 22 3 12 -10 15 -10
12 1 -2 8 2 15 7 15 6 1 24 8 40 15 17 8 38 14 47 15 10 1 24 8 33 15 8 7 21
10 30 6 8 -3 14 -2 14 2 -3 20 3 23 18 11 11 -10 14 -10 9 -1 -5 8 0 12 13 12
12 0 21 3 21 8 0 6 54 35 70 37 23 3 80 31 80 39 0 5 3 7 6 3 4 -3 25 4 47 16
22 12 52 29 67 37 15 8 42 30 59 47 18 18 39 33 47 33 8 0 21 15 29 32 8 18
13 25 10 16 -2 -10 0 -18 5 -18 6 0 10 7 10 15 0 8 7 15 15 15 9 0 18 7 22 16
3 8 12 13 19 10 7 -3 16 0 20 6 4 7 3 8 -4 4 -7 -4 -12 -1 -12 9 0 9 5 13 10
10 6 -4 23 5 37 19 24 24 40 31 70 27 6 -1 15 4 19 10 4 8 3 9 -4 5 -7 -4 -12
-3 -12 3 0 6 12 14 26 17 16 4 23 11 20 21 -3 8 -2 11 4 8 5 -3 14 4 21 16 8
16 13 18 19 9 6 -9 10 -7 15 9 3 11 11 21 16 21 6 0 7 -5 3 -12 -4 -7 -3 -8 5
-4 9 6 9 11 1 21 -8 9 -5 12 14 10 19 -2 23 1 19 16 -4 15 -2 18 12 12 12 -4
16 -3 12 4 -4 6 0 14 9 17 9 4 14 13 10 21 -3 8 0 14 7 12 7 -1 12 5 12 15 0
9 9 26 20 39 11 12 14 19 6 14 -10 -5 -12 -4 -7 3 4 7 14 12 22 12 17 0 19 16
2 26 -7 5 -8 3 -3 -6 6 -9 4 -11 -4 -6 -13 9 -6 21 12 21 7 0 11 8 11 17 -1
10 1 17 5 16 24 -3 33 4 28 21 -4 15 0 18 19 16 21 -2 22 0 12 13 -9 11 -9 14
-1 9 6 -4 15 -2 18 4 4 5 13 8 21 5 8 -3 14 1 14 9 0 8 6 14 13 12 6 -1 12 7
12 17 0 11 6 21 13 24 6 2 12 -1 12 -8 0 -8 6 -7 23 1 20 11 21 11 9 -4 -11
-13 -10 -15 7 -10 12 3 21 1 21 -6 0 -6 5 -11 11 -11 13 0 39 -25 39 -38 0 -5
11 -13 25 -16 14 -4 25 -11 25 -16 0 -6 13 -10 28 -10 36 0 54 -17 42 -40 -8
-15 0 -20 50 -38 33 -11 60 -16 60 -11 0 5 5 9 11 9 5 0 7 -6 3 -12 -6 -10 -4
-10 8 0 9 7 29 11 45 9 17 -2 33 2 41 12 8 10 11 10 6 2 -5 -9 -3 -12 5 -7 6
4 10 15 9 24 -2 11 3 16 14 14 12 -2 16 2 12 13 -5 11 -2 14 10 9 11 -4 16 -1
16 10 0 9 6 15 13 13 6 -1 11 3 10 10 -2 9 4 10 23 2 24 -8 26 -7 21 10 -6 23
35 65 73 76 32 10 51 25 44 36 -3 5 0 9 6 9 7 0 8 5 1 17 -13 24 13 73 39 73
18 0 19 10 22 156 2 89 -1 159 -6 165 -6 6 -5 9 3 9 7 0 11 6 8 14 -4 10 -1
13 9 9 10 -4 12 0 7 13 -4 11 -3 15 5 10 6 -3 13 3 17 14 7 23 27 17 23 -7 -2
-9 4 -18 12 -20 13 -4 13 -3 0 7 -13 10 -13 11 0 7 8 -2 14 -10 12 -17 -2 -7
2 -16 8 -20 16 -10 83 15 89 31 6 20 33 38 56 39 20 1 20 1 1 15 -20 15 -20
15 0 15 16 0 17 2 4 10 -8 5 -12 10 -8 10 4 0 3 11 -2 25 -6 16 -6 25 1 25 6
0 6 7 -1 20 -8 15 -8 20 1 20 7 0 9 9 5 24 -3 14 -1 28 4 31 6 4 8 10 5 15 -3
5 0 12 6 16 9 5 7 11 -6 21 -11 7 -13 13 -6 13 7 0 9 4 6 10 -3 5 -1 10 6 10
9 0 9 3 0 14 -9 11 -8 17 3 29 11 11 12 17 3 27 -9 10 -9 11 1 6 6 -4 12 -2
12 4 0 6 6 8 13 4 9 -5 9 -4 0 6 -9 10 -8 16 3 27 8 8 11 20 7 26 -9 14 -10
19 -12 50 -1 18 -3 20 -12 7 -9 -12 -10 -10 -6 8 4 18 2 22 -10 18 -13 -5 -14
-4 -4 8 9 10 9 16 1 21 -8 5 -8 10 0 20 8 10 8 15 -1 20 -8 6 -8 9 0 15 7 4
13 16 14 28 0 11 4 19 8 16 4 -2 9 3 13 11 3 10 -1 15 -12 16 -10 0 -12 3 -4
6 6 2 12 11 12 19 0 9 -4 13 -9 9 -5 -3 -11 9 -13 27 -2 19 -8 32 -15 31 -6
-2 -10 5 -8 15 2 11 -16 37 -48 67 -28 28 -47 44 -43 38 5 -9 2 -11 -9 -6 -13
5 -14 7 -3 14 11 8 11 11 -1 18 -8 5 -10 14 -6 21 6 9 4 11 -5 5 -10 -6 -12
-4 -7 8 4 11 1 17 -8 17 -7 0 -17 5 -21 12 -4 7 -3 8 4 4 19 -11 14 8 -7 31
-11 12 -17 24 -14 27 4 3 0 6 -7 6 -7 0 -10 3 -7 7 9 8 -12 33 -27 33 -6 0 -4
-5 4 -11 12 -8 10 -9 -9 -4 -15 5 -21 3 -17 -3 4 -6 -2 -8 -15 -5 -21 6 -20 7
7 22 16 8 32 14 36 13 4 -1 4 6 1 15 -4 10 -2 14 4 10 6 -4 16 0 22 7 9 11 9
16 0 22 -8 5 -9 3 -4 -6 6 -9 4 -11 -5 -5 -10 6 -10 11 4 20 16 13 12 50 -5
39 -5 -3 -6 2 -3 10 3 9 11 16 16 16 6 0 5 6 -2 15 -10 12 -9 16 3 21 9 3 13
12 10 20 -3 8 1 14 8 15 8 0 5 4 -6 9 -17 7 -17 9 -2 9 9 1 17 7 17 15 0 7 7
19 15 26 10 9 12 17 5 30 -7 13 -6 20 6 24 12 4 13 10 4 26 -9 16 -8 19 7 13
12 -5 15 -2 10 10 -4 12 -1 17 11 17 15 0 15 2 2 10 -8 5 -10 10 -5 10 6 0 12
12 13 27 1 15 7 30 12 33 5 3 11 18 12 33 1 15 6 27 11 27 5 0 4 6 -2 14 -9
11 -9 16 0 21 8 6 7 10 -2 16 -11 7 -10 9 3 9 11 0 15 5 12 15 -4 8 -1 15 6
15 8 0 9 4 3 13 -8 11 -10 29 -3 42 7 13 5 31 -3 43 -6 8 -5 12 3 12 8 0 9 4
4 13 -11 15 -11 38 0 55 4 7 3 19 -3 26 -9 11 -8 18 3 29 11 11 12 17 3 26 -7
7 -7 12 -2 11 6 -2 17 -2 25 0 11 1 9 4 -5 10 -15 7 -16 9 -4 9 9 1 23 9 30
18 8 9 9 14 3 10 -7 -4 -14 0 -17 8 -4 10 -1 12 10 8 13 -5 15 -2 11 15 -4 12
-2 22 3 22 4 0 6 7 3 15 -7 18 7 20 25 3 11 -10 13 -10 7 0 -5 7 -1 12 9 12
11 0 15 -6 11 -18 -4 -13 -1 -19 9 -19 20 0 19 9 -6 41 -11 14 -17 26 -12 27
4 1 -3 4 -17 8 -18 5 -24 13 -22 27 2 10 1 16 -3 12 -12 -12 -38 22 -40 53 -1
23 2 29 14 24 8 -3 12 -3 9 1 -4 4 -3 15 2 25 8 15 7 17 -10 14 -11 -2 -23 1
-26 7 -4 7 -2 8 4 4 7 -4 12 -2 12 5 0 6 -8 9 -19 6 -15 -3 -18 -1 -14 11 5
12 2 14 -12 9 -15 -6 -16 -5 -5 8 10 12 10 18 0 30 -7 8 -9 15 -4 15 5 0 9 18
9 40 0 22 -4 40 -9 40 -4 0 -6 7 -2 15 3 8 1 15 -4 15 -5 0 -6 7 -3 17 5 12 3
14 -8 8 -12 -7 -12 -6 -1 7 9 12 10 18 2 23 -8 5 -8 10 0 20 8 10 8 15 0 20
-8 5 -8 11 1 21 9 11 9 14 0 14 -9 0 -9 5 -1 20 8 15 8 20 -1 20 -8 0 -8 4 1
15 11 14 7 19 -12 16 -4 0 -5 6 -2 14 4 9 1 22 -6 30 -10 12 -10 15 0 15 7 0
10 7 7 14 -4 10 -1 13 7 10 9 -3 13 7 14 36 1 22 -3 40 -8 40 -6 0 -10 9 -10
20 0 11 -4 20 -10 20 -5 0 -12 11 -16 25 -3 14 -14 25 -23 26 -12 0 -12 2 4 8
17 7 17 9 3 17 -9 5 -18 20 -20 34 -1 14 -8 25 -15 25 -6 0 -15 4 -20 9 -5 5
-3 6 5 2 6 -4 12 -2 12 3 0 6 -5 11 -11 11 -5 0 -7 5 -4 10 3 6 -1 10 -9 10
-15 0 -21 12 -17 34 1 5 -5 6 -13 3 -18 -7 -32 11 -27 37 1 11 -2 16 -8 12 -7
-4 -8 -1 -5 8 3 9 10 16 15 16 5 0 9 5 9 11 0 5 -6 7 -12 4 -7 -4 -4 0 6 9 17
14 17 16 3 22 -9 3 -13 12 -10 20 3 8 -4 23 -16 33 -16 14 -18 21 -9 24 7 3 3
6 -10 6 -13 1 -20 5 -17 11 3 6 2 10 -4 10 -6 0 -14 12 -17 28 -10 38 -44 100
-76 134 -14 16 -29 41 -33 56 -7 28 -72 122 -84 122 -4 0 -14 12 -22 28 -7 15
-24 44 -36 64 -13 21 -22 41 -21 45 1 5 -6 25 -15 47 -9 21 -17 42 -17 47 0 5
-5 9 -11 9 -6 0 -9 7 -5 15 3 9 -1 15 -11 15 -13 0 -14 2 -2 17 10 11 10 14 2
9 -8 -4 -13 -1 -13 9 0 8 -8 19 -17 23 -20 8 -29 32 -12 32 6 0 1 9 -12 19
-15 12 -28 16 -33 10 -14 -13 -29 -11 -20 3 5 8 2 9 -9 5 -10 -3 -17 -2 -17 4
0 6 -4 7 -10 4 -9 -6 -14 8 -11 28 0 4 -6 7 -15 7 -9 0 -12 5 -8 13 5 7 1 7
-12 -3 -10 -8 -16 -11 -12 -6 7 9 -22 47 -32 41 -3 -2 -5 12 -5 31 1 19 0 32
-3 29 -3 -2 -17 9 -32 25 -16 17 -33 30 -40 30 -6 0 -8 5 -4 13 5 7 0 6 -11
-3 -11 -9 -16 -10 -11 -2 4 7 1 12 -9 12 -10 0 -13 5 -9 12 5 8 2 9 -9 5 -10
-4 -20 0 -26 11 -6 9 -11 12 -11 5 0 -23 -40 20 -40 43 0 30 -10 55 -20 49 -4
-3 -11 2 -14 11 -3 8 -2 12 4 9 6 -3 10 -1 10 4 0 10 -13 15 -32 12 -4 0 -10
8 -13 19 -6 18 -17 24 -37 21 -5 0 -8 4 -8 10 0 5 -4 8 -9 4 -5 -3 -12 -1 -16
4 -3 6 -13 7 -22 4 -12 -5 -14 -3 -8 8 8 12 6 12 -9 0 -15 -12 -17 -12 -14 0
2 8 -3 13 -10 11 -7 -1 -12 5 -10 14 2 9 -4 19 -12 21 -13 4 -13 3 0 -6 8 -6
11 -11 5 -11 -16 0 -37 16 -33 25 1 5 -6 9 -17 11 -11 2 -21 8 -23 13 -2 6
-12 11 -23 11 -10 0 -19 4 -19 9 0 13 -40 21 -40 8 0 -7 -7 -4 -14 6 -15 19
-31 23 -20 5 6 -10 4 -10 -7 0 -7 6 -23 12 -36 12 -13 0 -23 5 -23 10 0 6 -5
10 -11 10 -5 0 -7 -6 -3 -12 6 -10 4 -10 -7 0 -7 6 -23 12 -36 12 -13 0 -23 5
-23 10 0 6 -5 10 -11 10 -5 0 -7 -6 -4 -12 4 -7 -3 -2 -15 12 -12 14 -18 18
-14 10 5 -11 2 -10 -13 3 -11 9 -23 14 -27 10 -4 -5 -6 -1 -4 7 2 8 -5 14 -17
14 -11 0 -26 7 -33 16 -9 10 -11 11 -6 1 5 -10 3 -12 -5 -7 -9 6 -9 11 -1 21
9 11 6 13 -14 11 -14 -2 -23 0 -21 5 3 4 2 9 -2 12 -5 2 -2 2 5 1 19 -5 14 2
-14 21 -15 9 -24 13 -20 7 3 -6 -4 -5 -19 1 -14 7 -25 17 -25 22 0 6 -5 3 -10
-5 -6 -10 -10 -11 -10 -2 0 6 -11 12 -25 12 -14 0 -25 6 -25 13 0 9 -2 9 -9
-1 -13 -22 -112 -12 -134 13 -10 11 -16 14 -12 8 3 -7 1 -13 -4 -13 -6 0 -11
5 -11 10 0 6 -9 10 -20 10 -11 0 -20 5 -20 11 0 8 -6 7 -17 -2 -9 -8 -14 -9
-10 -3 3 6 0 11 -8 11 -8 0 -12 -4 -9 -9 3 -4 1 -8 -5 -8 -5 0 -12 6 -14 13
-4 10 -6 10 -6 0 -1 -9 -25 -13 -86 -13 -61 0 -85 3 -85 13 0 8 -4 7 -10 -3
-6 -10 -10 -11 -10 -2 0 9 -25 12 -89 12 -62 0 -91 4 -94 13 -4 9 -8 8 -16 -3
-8 -11 -11 -12 -11 -2 0 9 -12 13 -38 11 -21 -2 -43 0 -50 5 -7 4 -12 2 -12
-4 0 -6 -4 -8 -10 -5 -5 3 -19 -3 -31 -14 -17 -16 -38 -20 -111 -23 -50 -2
-92 0 -95 5 -2 4 -9 5 -14 2 -5 -4 -9 -2 -9 4 0 5 -9 8 -20 6 -18 -3 -19 -1
-9 18 7 12 8 19 4 15 -4 -4 -17 -3 -28 3 -15 9 -18 8 -12 -3 6 -10 5 -11 -6 0
-7 6 -36 12 -64 12 -38 0 -57 5 -73 20 -12 12 -22 16 -22 11 0 -6 8 -15 18
-20 9 -6 12 -11 5 -11 -6 0 -18 9 -26 20 -11 16 -23 19 -64 17 -28 -1 -49 -5
-46 -9 2 -5 -5 -8 -16 -8 -12 0 -21 5 -21 10 0 6 -5 10 -11 10 -5 0 -7 -6 -3
-12 6 -10 4 -10 -7 0 -7 6 -25 12 -39 12 -14 0 -32 -6 -39 -12 -11 -10 -13
-10 -7 0 4 6 3 12 -2 12 -5 0 -14 -10 -20 -22z m323 -648 c3 -5 1 -10 -4 -10
-6 0 -11 5 -11 10 0 6 2 10 4 10 3 0 8 -4 11 -10z m209 -18 c3 -5 -1 -9 -9 -9
-8 0 -15 4 -15 9 0 4 4 8 9 8 6 0 12 -4 15 -8z m-714 -103 c13 -9 12 -10 -3
-5 -15 5 -16 2 -7 -14 13 -24 13 -43 0 -35 -5 3 -10 -1 -10 -10 0 -9 5 -13 10
-10 6 3 10 4 10 0 0 -3 -12 -10 -27 -16 -18 -7 -23 -13 -16 -20 12 -12 5 -51
-8 -43 -5 3 -8 -5 -6 -18 1 -12 -3 -23 -10 -23 -6 0 -15 -4 -20 -9 -4 -5 -3
-6 3 -3 7 4 15 0 18 -8 3 -9 -1 -18 -9 -22 -12 -4 -13 -9 -4 -19 8 -10 8 -14
0 -14 -6 0 -11 -10 -11 -22 0 -16 -3 -19 -8 -10 -11 16 -52 -27 -55 -57 -1
-11 -4 -21 -8 -21 -4 0 -5 -9 -2 -19 5 -20 -28 -46 -42 -33 -5 4 -5 1 -1 -5 4
-7 2 -13 -4 -13 -6 0 -9 -4 -6 -9 3 -5 -1 -21 -9 -37 -7 -15 -12 -31 -9 -36 3
-4 0 -8 -7 -8 -8 0 -8 -4 1 -15 7 -8 8 -15 2 -15 -9 0 -25 -36 -23 -52 0 -4
-7 -4 -16 -1 -12 5 -14 3 -8 -8 8 -12 6 -12 -8 0 -15 12 -17 12 -12 0 4 -10
-2 -15 -16 -16 -14 -1 -19 3 -15 12 3 8 1 17 -5 21 -7 4 -6 10 1 19 8 10 8 15
0 20 -8 5 -8 11 1 21 9 11 9 14 0 14 -9 0 -9 5 -1 20 6 11 8 26 4 32 -4 6 -3
8 3 5 6 -4 14 0 17 9 4 10 2 13 -7 9 -6 -4 -4 0 7 9 10 8 15 19 11 25 -3 6 -1
11 5 11 6 0 8 5 5 10 -3 6 -1 10 4 10 6 0 11 5 11 11 0 5 -4 7 -10 4 -5 -3
-10 -3 -10 0 0 3 14 11 30 16 17 6 30 16 30 21 0 6 -8 4 -17 -3 -16 -13 -17
-12 -4 4 7 9 23 17 35 17 18 0 19 2 6 11 -12 9 -10 10 8 6 18 -4 21 -3 12 8
-8 10 -7 16 7 24 10 6 13 11 5 11 -10 0 -10 3 0 14 7 8 16 12 20 10 4 -2 10 1
14 7 4 7 3 9 -4 5 -6 -3 -13 -2 -17 4 -3 5 -2 10 4 10 5 0 8 9 6 20 -2 11 1
23 7 26 7 5 8 2 3 -6 -5 -8 -4 -11 3 -7 5 4 8 16 5 27 -4 14 -1 20 8 18 9 -2
13 4 11 15 -2 9 4 20 13 23 8 3 15 15 15 25 0 10 4 19 10 19 5 0 6 7 3 17 -4
11 -3 14 5 9 7 -4 12 -1 12 6 0 33 41 48 70 27z m3000 -154 c7 -9 8 -15 2 -15
-5 0 -12 7 -16 15 -3 8 -4 15 -2 15 2 0 9 -7 16 -15z m40 -65 c0 -5 -2 -10 -4
-10 -3 0 -8 5 -11 10 -3 6 -1 10 4 10 6 0 11 -4 11 -10z m-4523 -475 c0 -8 -4
-12 -9 -9 -5 3 -6 10 -3 15 9 13 12 11 12 -6z m5063 -2149 c0 -3 -4 -8 -10
-11 -5 -3 -10 -1 -10 4 0 6 5 11 10 11 6 0 10 -2 10 -4z m-135 -326 c3 -5 1
-10 -4 -10 -6 0 -11 5 -11 10 0 6 2 10 4 10 3 0 8 -4 11 -10z m-29 -44 c0 -13
-5 -24 -11 -23 -5 1 -9 -3 -10 -10 0 -6 -3 -14 -7 -18 -10 -10 -3 16 12 48 16
33 18 34 16 3z m279 -204 c-3 -3 -11 0 -18 7 -9 10 -8 11 6 5 10 -3 15 -9 12
-12z"/>
<path d="M2003 6393 c0 -9 4 -10 14 -2 7 6 13 12 13 14 0 1 -6 2 -13 2 -8 0
-14 -6 -14 -14z"/>
<path d="M1751 6230 c-13 -11 -19 -20 -14 -20 6 0 18 9 28 20 23 25 17 25 -14
0z"/>
<path d="M5755 4731 c-3 -5 -2 -12 3 -15 5 -3 9 1 9 9 0 17 -3 19 -12 6z"/>
<path d="M6070 3860 c8 -5 22 -9 30 -9 10 0 8 3 -5 9 -27 12 -43 12 -25 0z"/>
<path d="M5990 1781 c0 -6 4 -13 10 -16 6 -3 7 1 4 9 -7 18 -14 21 -14 7z"/>
<path d="M1806 527 c3 -10 9 -15 12 -12 3 3 0 11 -7 18 -10 9 -11 8 -5 -6z"/>
</g>
</svg>
